REM DISCID C10EF50F
REM COMMENT "ExactAudioCopy v1.0b2"
PERFORMER ""
TITLE "25"
FILE " - 25.wav" WAVE
  TRACK 01 AUDIO
    TITLE "01"
    PERFORMER ""
    INDEX 01 00:00:00
  TRACK 02 AUDIO
    TITLE "02"
    PERFORMER ""
    INDEX 01 04:24:43
  TRACK 03 AUDIO
    TITLE "03"
    PERFORMER ""
    INDEX 01 08:08:60
  TRACK 04 AUDIO
    TITLE "04"
    PERFORMER ""
    INDEX 01 13:28:57
  TRACK 05 AUDIO
    TITLE "05"
    PERFORMER ""
    INDEX 01 18:41:55
  TRACK 06 AUDIO
    TITLE "06"
    PERFORMER ""
    INDEX 01 23:55:07
  TRACK 07 AUDIO
    TITLE "07"
    PERFORMER ""
    INDEX 01 27:17:42
  TRACK 08 AUDIO
    TITLE "08"
    PERFORMER ""
    INDEX 01 31:13:67
  TRACK 09 AUDIO
    TITLE "09"
    PERFORMER ""
    INDEX 01 34:45:33
  TRACK 10 AUDIO
    TITLE "10"
    PERFORMER ""
    INDEX 01 39:13:26
  TRACK 11 AUDIO
    TITLE "11"
    PERFORMER ""
    INDEX 01 42:02:58
  TRACK 12 AUDIO
    TITLE "12"
    PERFORMER ""
    INDEX 01 48:39:21
  TRACK 13 AUDIO
    TITLE "13"
    PERFORMER ""
    INDEX 01 52:10:20
  TRACK 14 AUDIO
    TITLE "14"
    PERFORMER ""
    INDEX 01 55:50:27
  TRACK 15 AUDIO
    TITLE "15"
    PERFORMER ""
    INDEX 01 60:01:31
